<svg width="157" height="128" viewBox="0 0 157 128" fill="none" xmlns="http://www.w3.org/2000/svg">
<path d="M15.3333 60.5169C13.8667 62.1169 10.4 63.4503 6.53333 63.9836L0 64.9169V88.1169V111.317L19.7333 110.917L39.3333 110.517L39.7333 87.4503C40 66.2503 39.8667 64.5169 37.7333 64.5169C36 64.5169 35.7333 64.9169 37.0667 65.5836C38.2667 66.5169 38.6667 71.8503 38.4 87.9836L38 109.184L19.7333 109.584L1.33333 109.984V87.8503V65.8503L5.06667 65.9836C8.13333 66.2503 8.26667 66.2503 5.73333 66.7836C2.8 67.3169 2.66667 67.7169 2.93333 82.9169L3.2 98.5169L3.6 83.4503L4.13333 68.5169H19.3333H34.6667V87.1836V105.85H19.4667C4.66667 105.85 4.13333 105.717 3.6 102.784C3.06667 100.784 2.93333 101.184 3.06667 103.85L3.33333 107.85H19.3333H35.3333L35.7333 87.4503L36.1333 67.1836H33.0667C30.6667 67.1836 30.4 66.9169 31.8667 65.9836C33.4667 64.9169 32.9333 64.5169 29.8667 63.7169C27.7333 63.1836 24.9333 61.7169 23.6 60.3836C20.5333 57.1836 18.4 57.1836 15.3333 60.5169ZM22.4 61.4503C22.6667 62.5169 21.6 63.1836 19.4667 63.1836C16.1333 63.1836 15.0667 61.8503 16.9333 59.9836C18.2667 58.6503 21.7333 59.5836 22.4 61.4503ZM29.3333 65.8503C29.3333 66.6503 25.0667 67.1836 19.3333 67.1836C13.6 67.1836 9.33333 66.6503 9.33333 65.8503C9.33333 65.0503 13.6 64.5169 19.3333 64.5169C25.0667 64.5169 29.3333 65.0503 29.3333 65.8503Z" fill="black"/>
<path d="M42.9333 78.1169C43.0667 83.7169 43.3333 84.9169 43.6 81.4503C44.6667 72.2503 46.6667 76.3836 46.6667 87.7169C46.6667 99.5836 44.5333 104.65 43.6 94.9169C43.2 90.1169 43.0667 90.5169 42.9333 97.1836C42.8 101.584 43.2 105.984 43.8667 107.05C46 110.517 47.2 105.584 47.8667 90.5169C48.4 78.3836 48.6667 77.0503 49.4667 82.5169L50.2667 89.1836L50.4 82.1169C50.5333 78.3836 50.1333 75.1836 49.4667 75.1836C48.8 75.1836 48 73.9836 47.6 72.5169C47.2 71.0503 46 69.8503 44.8 69.8503C43.0667 69.8503 42.6667 71.3169 42.9333 78.1169ZM46.6667 72.3836C46.6667 73.1836 46.1333 74.1169 45.3333 74.5169C44.6667 74.9169 44 74.3836 44 73.3169C44 72.1169 44.6667 71.1836 45.3333 71.1836C46.1333 71.1836 46.6667 71.7169 46.6667 72.3836Z" fill="black"/>
<path d="M6.66667 79.1836C6.66667 82.9169 7.06667 83.3169 10.4 82.9169C13.2 82.6503 14 81.8503 14 79.1836C14 76.5169 13.2 75.7169 10.4 75.4503C7.06667 75.0503 6.66667 75.4503 6.66667 79.1836ZM12 79.3169C12 82.5169 8.93333 82.1169 8.26667 78.7836C8 77.4503 8.66667 76.5169 9.86667 76.5169C11.2 76.5169 12 77.7169 12 79.3169Z" fill="black"/>
<path d="M19.7333 78.7836C22.1333 79.0502 25.7333 79.0502 27.7333 78.7836C29.7333 78.5169 27.7333 78.2502 23.3333 78.2502C18.9333 78.2502 17.3333 78.5169 19.7333 78.7836Z" fill="black"/>
<path d="M19.7333 82.7836C22.1333 83.0503 25.7333 83.0503 27.7333 82.7836C29.7333 82.5169 27.7333 82.2503 23.3333 82.2503C18.9333 82.2503 17.3333 82.5169 19.7333 82.7836Z" fill="black"/>
<path d="M6.66667 88.5169C6.66667 92.2503 7.06667 92.6503 10.4 92.2503C13.2 91.9836 14 91.1836 14 88.5169C14 85.8503 13.2 85.0503 10.4 84.7836C7.06667 84.3836 6.66667 84.7836 6.66667 88.5169ZM12 88.5169C12 89.9836 11.0667 91.1836 10 91.1836C8.93333 91.1836 8 89.9836 8 88.5169C8 87.0503 8.93333 85.8503 10 85.8503C11.0667 85.8503 12 87.0503 12 88.5169Z" fill="black"/>
<path d="M19.7333 89.4503C22.1333 89.7169 25.7333 89.7169 27.7333 89.4503C29.7333 89.1836 27.7333 88.9169 23.3333 88.9169C18.9333 88.9169 17.3333 89.1836 19.7333 89.4503Z" fill="black"/>
<path d="M19.7333 92.1169C22 92.3836 26 92.3836 28.4 92.1169C30.6667 91.8503 28.8 91.5836 24 91.5836C19.2 91.5836 17.3333 91.8503 19.7333 92.1169Z" fill="black"/>
<path d="M6.66667 98.5169C6.66667 101.584 7.2 101.984 10.4 101.584C12.9333 101.317 14 100.384 14 98.5169C14 96.6503 12.9333 95.7169 10.4 95.4503C7.2 95.0503 6.66667 95.4503 6.66667 98.5169ZM12 98.5169C12 99.5836 11.0667 100.517 10 100.517C8.93333 100.517 8 99.5836 8 98.5169C8 97.4503 8.93333 96.5169 10 96.5169C11.0667 96.5169 12 97.4503 12 98.5169Z" fill="black"/>
<path d="M19.7333 98.7836C22 99.0503 26 99.0503 28.4 98.7836C30.6667 98.5169 28.8 98.2503 24 98.2503C19.2 98.2503 17.3333 98.5169 19.7333 98.7836Z" fill="black"/>
<path d="M19.7333 101.45C22.1333 101.717 25.7333 101.717 27.7333 101.45C29.7333 101.184 27.7333 100.917 23.3333 100.917C18.9333 100.917 17.3333 101.184 19.7333 101.45Z" fill="black"/>
<path d="M71.3333 60.5169C69.8667 62.1169 66.4 63.4503 62.5333 63.9836L56 64.9169V88.1169V111.317L75.7333 110.917L95.3333 110.517L95.7333 87.4503C96 66.2503 95.8667 64.5169 93.7333 64.5169C92 64.5169 91.7333 64.9169 93.0667 65.5836C94.2667 66.5169 94.6667 71.8503 94.4 87.9836L94 109.184L75.7333 109.584L57.3333 109.984V87.8503V65.8503L61.0667 65.9836C64.1333 66.2503 64.2667 66.2503 61.7333 66.7836C58.8 67.3169 58.6667 67.7169 58.9333 82.9169L59.2 98.5169L59.6 83.4503L60.1333 68.5169H75.3333H90.6667V87.1836V105.85H75.4667C60.6667 105.85 60.1333 105.717 59.6 102.784C59.0667 100.784 58.9333 101.184 59.0667 103.85L59.3333 107.85H75.3333H91.3333L91.7333 87.4503L92.1333 67.1836H89.0667C86.6667 67.1836 86.4 66.9169 87.8667 65.9836C89.4667 64.9169 88.9333 64.5169 85.8667 63.7169C83.7333 63.1836 80.9333 61.7169 79.6 60.3836C76.5333 57.1836 74.4 57.1836 71.3333 60.5169ZM78.4 61.4503C78.6667 62.5169 77.6 63.1836 75.4667 63.1836C72.1333 63.1836 71.0667 61.8503 72.9333 59.9836C74.2667 58.6503 77.7333 59.5836 78.4 61.4503ZM85.3333 65.8503C85.3333 66.6503 81.0667 67.1836 75.3333 67.1836C69.6 67.1836 65.3333 66.6503 65.3333 65.8503C65.3333 65.0503 69.6 64.5169 75.3333 64.5169C81.0667 64.5169 85.3333 65.0503 85.3333 65.8503Z" fill="white"/>
<path d="M98.9333 78.1169C99.0667 83.7169 99.3333 84.9169 99.6 81.4503C100.667 72.2503 102.667 76.3836 102.667 87.7169C102.667 99.5836 100.533 104.65 99.6 94.9169C99.2 90.1169 99.0667 90.5169 98.9333 97.1836C98.8 101.584 99.2 105.984 99.8667 107.05C102 110.517 103.2 105.584 103.867 90.5169C104.4 78.3836 104.667 77.0503 105.467 82.5169L106.267 89.1836L106.4 82.1169C106.533 78.3836 106.133 75.1836 105.467 75.1836C104.8 75.1836 104 73.9836 103.6 72.5169C103.2 71.0503 102 69.8503 100.8 69.8503C99.0667 69.8503 98.6667 71.3169 98.9333 78.1169ZM102.667 72.3836C102.667 73.1836 102.133 74.1169 101.333 74.5169C100.667 74.9169 100 74.3836 100 73.3169C100 72.1169 100.667 71.1836 101.333 71.1836C102.133 71.1836 102.667 71.7169 102.667 72.3836Z" fill="white"/>
<path d="M62.6667 79.1836C62.6667 82.9169 63.0667 83.3169 66.4 82.9169C69.2 82.6503 70 81.8503 70 79.1836C70 76.5169 69.2 75.7169 66.4 75.4503C63.0667 75.0503 62.6667 75.4503 62.6667 79.1836ZM68 79.3169C68 82.5169 64.9333 82.1169 64.2667 78.7836C64 77.4503 64.6667 76.5169 65.8667 76.5169C67.2 76.5169 68 77.7169 68 79.3169Z" fill="white"/>
<path d="M75.7333 78.7836C78.1333 79.0502 81.7333 79.0502 83.7333 78.7836C85.7333 78.5169 83.7333 78.2502 79.3333 78.2502C74.9333 78.2502 73.3333 78.5169 75.7333 78.7836Z" fill="white"/>
<path d="M75.7333 82.7836C78.1333 83.0503 81.7333 83.0503 83.7333 82.7836C85.7333 82.5169 83.7333 82.2503 79.3333 82.2503C74.9333 82.2503 73.3333 82.5169 75.7333 82.7836Z" fill="white"/>
<path d="M62.6667 88.5169C62.6667 92.2503 63.0667 92.6503 66.4 92.2503C69.2 91.9836 70 91.1836 70 88.5169C70 85.8503 69.2 85.0503 66.4 84.7836C63.0667 84.3836 62.6667 84.7836 62.6667 88.5169ZM68 88.5169C68 89.9836 67.0667 91.1836 66 91.1836C64.9333 91.1836 64 89.9836 64 88.5169C64 87.0503 64.9333 85.8503 66 85.8503C67.0667 85.8503 68 87.0503 68 88.5169Z" fill="white"/>
<path d="M75.7333 89.4503C78.1333 89.7169 81.7333 89.7169 83.7333 89.4503C85.7333 89.1836 83.7333 88.9169 79.3333 88.9169C74.9333 88.9169 73.3333 89.1836 75.7333 89.4503Z" fill="white"/>
<path d="M75.7333 92.1169C78 92.3836 82 92.3836 84.4 92.1169C86.6667 91.8503 84.8 91.5836 80 91.5836C75.2 91.5836 73.3333 91.8503 75.7333 92.1169Z" fill="white"/>
<path d="M62.6667 98.5169C62.6667 101.584 63.2 101.984 66.4 101.584C68.9333 101.317 70 100.384 70 98.5169C70 96.6503 68.9333 95.7169 66.4 95.4503C63.2 95.0503 62.6667 95.4503 62.6667 98.5169ZM68 98.5169C68 99.5836 67.0667 100.517 66 100.517C64.9333 100.517 64 99.5836 64 98.5169C64 97.4503 64.9333 96.5169 66 96.5169C67.0667 96.5169 68 97.4503 68 98.5169Z" fill="white"/>
<path d="M75.7333 98.7836C78 99.0503 82 99.0503 84.4 98.7836C86.6667 98.5169 84.8 98.2503 80 98.2503C75.2 98.2503 73.3333 98.5169 75.7333 98.7836Z" fill="white"/>
<path d="M75.7333 101.45C78.1333 101.717 81.7333 101.717 83.7333 101.45C85.7333 101.184 83.7333 100.917 79.3333 100.917C74.9333 100.917 73.3333 101.184 75.7333 101.45Z" fill="white"/>
<path d="M129 1L125 5L129 9" stroke="#646464" stroke-width="2"/>
<path d="M150 1L146 5L150 9" stroke="white" stroke-width="2"/>
<path d="M125 29L129 33.5L125 38" stroke="#646464" stroke-width="2"/>
<path d="M147 29L151 33.5L147 38" stroke="white" stroke-width="2"/>
<g clip-path="url(#clip0_12_16)">
<path d="M-3.8147e-06 8.66668V17.3333H12.6667H25.3333V8.66668V9.26852e-06H12.6667H-3.8147e-06V8.66668ZM23.7333 8.93334L23.4667 16.6667L23.0667 9.60001L22.5333 2.66668H12.6667H2.8L2.26666 9.60001L1.86666 16.6667L1.6 8.93334L1.33333 1.33334H12.6667H24L23.7333 8.93334ZM21.3333 9.33334V14.8L13.0667 14.4L4.66666 14L4.26666 8.93334L3.86666 4.00001H12.5333H21.3333V9.33334Z" fill="black"/>
<path d="M14 6.66669C13.4667 7.46669 12.6667 7.73336 12.1333 7.46669C11.6 7.06669 11.0667 7.60002 11.0667 8.66669C11.0667 9.60002 12.1333 10.4 13.3333 10.2667C14.4 10.2667 15.4667 9.06669 15.4667 7.73336C15.4667 4.93336 15.2 4.80002 14 6.66669Z" fill="black"/>
<path d="M29.6 5.59999C27.6 7.59999 27.6 12.4 29.6 14.4C31.6 16.4 36.4 16.4 38.4 14.4C42.1333 10.6667 39.3333 3.99999 34 3.99999C32.4 3.99999 30.5333 4.66666 29.6 5.59999ZM38 9.99999C38 13.4667 37.6 14 34.1333 14C32 14 30 13.2 29.7333 12.2667C29.3333 11.3333 30.2667 10.6667 31.8667 10.6667C33.4667 10.6667 34.6667 10.1333 34.6667 9.46666C34.6667 8.79999 33.4667 8.53333 32 8.93333C30.5333 9.33333 29.3333 9.06666 29.3333 8.39999C29.3333 6.13333 31.2 5.19999 34.6667 5.59999C37.3333 5.86666 38 6.66666 38 9.99999Z" fill="black"/>
<path d="M45.3333 20C45.3333 29.0667 45.4667 29.4667 48.4 29.0667C51.0667 28.6667 51.3333 28 51.3333 20C51.3333 12 51.0667 11.3333 48.4 10.9333C45.4667 10.5333 45.3333 10.9333 45.3333 20ZM49.2 20C49.0667 24.4 48.4 28 47.7333 28C47.2 28 46.6667 24.4 46.6667 20C46.6667 15.3333 47.2 12 48.1333 12C48.9333 12 49.3333 15.0667 49.2 20Z" fill="black"/>
<path d="M26.6667 24V29.3333H34H41.3333V24V18.6667H34H26.6667V24ZM40 24C40 27.8667 39.7333 28 34 28C28.2667 28 28 27.8667 28 24C28 20.1333 28.2667 20 34 20C39.7333 20 40 20.1333 40 24Z" fill="black"/>
<path d="M29.3333 24C29.3333 26.1334 30.2667 26.6667 34 26.6667C37.7333 26.6667 38.6667 26.1334 38.6667 24C38.6667 21.8667 37.7333 21.3334 34 21.3334C30.2667 21.3334 29.3333 21.8667 29.3333 24ZM37.3333 24C37.3333 24.6667 35.8667 25.3334 34 25.3334C32.1333 25.3334 30.6667 24.6667 30.6667 24C30.6667 23.2 32.1333 22.6667 34 22.6667C35.8667 22.6667 37.3333 23.2 37.3333 24Z" fill="black"/>
<path d="M48.2667 39.6C48 47.2 47.6 49.3333 46 49.3333C44.9333 49.3333 44 50.2667 44 51.3333C44 52.6667 45.4667 53.3333 48.6667 53.3333C51.8667 53.3333 53.3333 52.6667 53.3333 51.3333C53.3333 50.2667 52.4 49.3333 51.3333 49.3333C49.8667 49.3333 49.3333 47.0667 48.9333 39.6L48.5333 30L48.2667 39.6ZM49.7333 51.6C48.8 51.8667 47.2 51.8667 46.4 51.6C45.4667 51.2 46.1333 50.9333 48 50.9333C49.8667 50.9333 50.5333 51.2 49.7333 51.6Z" fill="black"/>
<path d="M4.93333 33.0667C4.53333 33.6 4 36.6667 3.86667 40L3.33333 46L21.8667 46.4L40.2667 46.8L39.4667 43.7334C39.0667 42 38.6667 38.6667 38.6667 36.2667V32H22.1333C12.9333 32 5.2 32.4 4.93333 33.0667ZM37.3333 38V42.8L21.7333 42.4L6 42L5.6 37.6L5.2 33.3334H21.2H37.3333V38ZM30.4 44.9334C25.3333 45.2 17.3333 45.2 12.4 44.9334C7.33333 44.6667 11.4667 44.5334 21.3333 44.5334C31.2 44.5334 35.3333 44.6667 30.4 44.9334Z" fill="black"/>
<path d="M0.933331 35.6C-1.06667 37.4667 0.133331 47.0667 2.66666 50.2667C4.66666 52.8 5.33333 53.0667 5.33333 51.4667C5.33333 49.6 7.46667 49.3333 22 49.3333C36.8 49.3333 38.6667 49.6 38.6667 51.6C38.6667 53.6 38.9333 53.4667 40.6667 51.2C42.6667 48.5333 43.4667 34.6667 41.7333 34.6667C41.0667 34.6667 40.9333 37.6 41.0667 41.3333L41.6 48H21.3333H1.06666L1.6 41.3333C1.73333 37.6 2 34.6667 1.86666 34.6667C1.86666 34.6667 1.33333 35.0667 0.933331 35.6Z" fill="black"/>
</g>
<path d="M59.0707 8.66668V17.3333H71.7374H84.4041V8.66668V9.26852e-06H71.7374H59.0707V8.66668ZM82.8041 8.93334L82.5374 16.6667L82.1374 9.60001L81.6041 2.66668H71.7374H61.8707L61.3374 9.60001L60.9374 16.6667L60.6707 8.93334L60.4041 1.33334H71.7374H83.0707L82.8041 8.93334ZM80.4041 9.33334V14.8L72.1374 14.4L63.7374 14L63.3374 8.93334L62.9374 4.00001H71.6041H80.4041V9.33334Z" fill="white"/>
<path d="M73.0707 6.66669C72.5374 7.46669 71.7374 7.73336 71.2041 7.46669C70.6707 7.06669 70.1374 7.60002 70.1374 8.66669C70.1374 9.60002 71.2041 10.4 72.4041 10.2667C73.4707 10.2667 74.5374 9.06669 74.5374 7.73336C74.5374 4.93336 74.2707 4.80002 73.0707 6.66669Z" fill="white"/>
<path d="M88.6707 5.59999C86.6707 7.59999 86.6707 12.4 88.6707 14.4C90.6707 16.4 95.4707 16.4 97.4707 14.4C101.204 10.6667 98.4041 3.99999 93.0707 3.99999C91.4707 3.99999 89.6041 4.66666 88.6707 5.59999ZM97.0707 9.99999C97.0707 13.4667 96.6707 14 93.2041 14C91.0707 14 89.0707 13.2 88.8041 12.2667C88.4041 11.3333 89.3374 10.6667 90.9374 10.6667C92.5374 10.6667 93.7374 10.1333 93.7374 9.46666C93.7374 8.79999 92.5374 8.53333 91.0707 8.93333C89.6041 9.33333 88.4041 9.06666 88.4041 8.39999C88.4041 6.13333 90.2707 5.19999 93.7374 5.59999C96.4041 5.86666 97.0707 6.66666 97.0707 9.99999Z" fill="white"/>
<path d="M104.404 20C104.404 29.0667 104.537 29.4667 107.471 29.0667C110.137 28.6667 110.404 28 110.404 20C110.404 12 110.137 11.3333 107.471 10.9333C104.537 10.5333 104.404 10.9333 104.404 20ZM108.271 20C108.137 24.4 107.471 28 106.804 28C106.271 28 105.737 24.4 105.737 20C105.737 15.3333 106.271 12 107.204 12C108.004 12 108.404 15.0667 108.271 20Z" fill="white"/>
<path d="M85.7374 24V29.3333H93.0707H100.404V24V18.6667H93.0707H85.7374V24ZM99.0707 24C99.0707 27.8667 98.8041 28 93.0707 28C87.3374 28 87.0707 27.8667 87.0707 24C87.0707 20.1333 87.3374 20 93.0707 20C98.8041 20 99.0707 20.1333 99.0707 24Z" fill="white"/>
<path d="M88.4041 24C88.4041 26.1334 89.3374 26.6667 93.0707 26.6667C96.8041 26.6667 97.7374 26.1334 97.7374 24C97.7374 21.8667 96.8041 21.3334 93.0707 21.3334C89.3374 21.3334 88.4041 21.8667 88.4041 24ZM96.4041 24C96.4041 24.6667 94.9374 25.3334 93.0707 25.3334C91.2041 25.3334 89.7374 24.6667 89.7374 24C89.7374 23.2 91.2041 22.6667 93.0707 22.6667C94.9374 22.6667 96.4041 23.2 96.4041 24Z" fill="white"/>
<path d="M107.337 39.6C107.071 47.2 106.671 49.3333 105.071 49.3333C104.004 49.3333 103.071 50.2667 103.071 51.3333C103.071 52.6667 104.537 53.3333 107.737 53.3333C110.937 53.3333 112.404 52.6667 112.404 51.3333C112.404 50.2667 111.471 49.3333 110.404 49.3333C108.937 49.3333 108.404 47.0667 108.004 39.6L107.604 30L107.337 39.6ZM108.804 51.6C107.871 51.8667 106.271 51.8667 105.471 51.6C104.537 51.2 105.204 50.9333 107.071 50.9333C108.937 50.9333 109.604 51.2 108.804 51.6Z" fill="white"/>
<path d="M64.0041 33.0667C63.6041 33.6 63.0707 36.6667 62.9374 40L62.4041 46L80.9374 46.4L99.3374 46.8L98.5374 43.7334C98.1374 42 97.7374 38.6667 97.7374 36.2667V32H81.2041C72.0041 32 64.2707 32.4 64.0041 33.0667ZM96.4041 38V42.8L80.8041 42.4L65.0707 42L64.6707 37.6L64.2707 33.3334H80.2707H96.4041V38ZM89.4707 44.9334C84.4041 45.2 76.4041 45.2 71.4707 44.9334C66.4041 44.6667 70.5374 44.5334 80.4041 44.5334C90.2707 44.5334 94.4041 44.6667 89.4707 44.9334Z" fill="white"/>
<path d="M60.0041 35.6C58.0041 37.4667 59.2041 47.0667 61.7374 50.2667C63.7374 52.8 64.4041 53.0667 64.4041 51.4667C64.4041 49.6 66.5374 49.3333 81.0707 49.3333C95.8707 49.3333 97.7374 49.6 97.7374 51.6C97.7374 53.6 98.0041 53.4667 99.7374 51.2C101.737 48.5333 102.537 34.6667 100.804 34.6667C100.137 34.6667 100.004 37.6 100.137 41.3333L100.671 48H80.4041H60.1374L60.6707 41.3333C60.8041 37.6 61.0707 34.6667 60.9374 34.6667C60.9374 34.6667 60.4041 35.0667 60.0041 35.6Z" fill="white"/>
<path fill-rule="evenodd" clip-rule="evenodd" d="M125 127.6H157V124.4H125V127.6ZM125 105.2H157V102H125V105.2ZM125 116.4H157V113.2H125V116.4Z" fill="black"/>
<path fill-rule="evenodd" clip-rule="evenodd" d="M143.314 70.2381L157 83.2728L154.685 85.4762L141 72.4415L127.314 85.4762L125 83.2728L138.685 70.2381L125 57.2034L127.314 55L141 68.0347L154.685 55L157 57.2034L143.314 70.2381Z" fill="black"/>
<defs>
<clipPath id="clip0_12_16">
<rect width="53.3333" height="53.3333" fill="white"/>
</clipPath>
</defs>
</svg>
